[img]http://imageshack.us/a/img713/193/17again2009jon.png[/img]

[url="http://www.imdb.com/title/tt0974661/"]IMDb[/url]

[b][color=black]About a guy whose life didn't quite turn out how he wanted it to and wishes he could go back to high school and change it. He wakes up one day and is seventeen again and gets the chance to rewrite his life.

17 Again [2009] BRRip x264 AAC -Sebastian[Ub3r].mp4

Format                           : MPEG-4
Format profile                   : Base Media / Version 2
Codec ID                         : mp42
File size                        : 339 MiB
Duration                         : 1h 41mn
Overall bit rate                 : 465 Kbps
Encoded date                     : UTC 2012-09-28 10:47:43
Tagged date                      : UTC 2012-09-28 11:17:40

Video
ID                               : 1
Format                           : AVC
Format/Info                      : Advanced Video Codec
Format profile                   : Main@L2.1
Format settings, CABAC           : Yes
Format settings, ReFrames        : 4 frames
Codec ID                         : avc1
Codec ID/Info                    : Advanced Video Coding
Duration                         : 1h 41mn
Bit rate mode                    : Variable
Bit rate                         : 350 Kbps
Width                            : 640 pixels
Height                           : 272 pixels
Display aspect ratio             : 2.35:1
Frame rate mode                  : Variable
Frame rate                       : 23.976 fps
Minimum frame rate               : 5.994 fps
Maximum frame rate               : 23.981 fps
Color space                      : YUV
Chroma subsampling               : 4:2:0
Bit depth                        : 8 bits
Scan type                        : Progressive
Bits/(Pixel*Frame)               : 0.084
Stream size                      : 254 MiB (75%)
Writing library                  : x264 core 120
Encoded date                     : UTC 2012-09-28 10:47:43
Tagged date                      : UTC 2012-09-28 11:17:35

Audio
ID                               : 2
Format                           : AAC
Format/Info                      : Advanced Audio Codec
Format profile                   : LC
Codec ID                         : 40
Duration                         : 1h 41mn
Bit rate mode                    : Variable
Bit rate                         : 112 Kbps
Maximum bit rate                 : 215 Kbps
Channel(s)                       : 2 channels
Channel positions                : Front: L R
Sampling rate                    : 48.0 KHz
Compression mode                 : Lossy
Stream size                      : 81.6 MiB (24%)
Language                         : English
Encoded date                     : UTC 2012-09-28 10:47:43
Tagged date                      : UTC 2012-09-28 11:17:34

Source:17 Again (2009) 720p BrRip x264 - YIFY (Thanks) [/color][/b]

[img]http://imageshack.us/a/img832/4761/17again2009brripx264aac.jpg[/img]

[img]http://kastatic.com/i2/users/133df62bbf28e62494bb17fe11078f1a.gif[/img][img]http://kastatic.com/i2/users/133df62bbf28e62494bb17fe11078f1a.gif[/img]

